<mxfile host="app.diagrams.net" modified="2024-05-24T15:06:56.386Z" agent="Mozilla/5.0 (Windows NT 10.0; Win64; x64) AppleWebKit/537.36 (KHTML, like Gecko) Chrome/124.0.0.0 Safari/537.36" version="24.4.7" etag="58a02v15m7BsRWXrv6BJ" type="github">
  <diagram name="Pagina-1" id="Vv2Z9o6kTPq1_BEHPuUD">
    <mxGraphModel>
      <root>
        <mxCell id="0" />
        <mxCell id="1" parent="0" />
      </root>
    </mxGraphModel>
  </diagram>
</mxfile>
